<svg width="400" height="400" viewBox="0 0 400 400" fill="none" xmlns="http://www.w3.org/2000/svg">
<rect width="50" height="50" fill="#7591C5"/>
<rect y="50" width="50" height="50" fill="black"/>
<rect y="100" width="50" height="50" fill="#7591C5"/>
<rect y="150" width="50" height="50" fill="black"/>
<rect y="200" width="50" height="50" fill="black"/>
<rect y="250" width="50" height="50" fill="black"/>
<rect y="300" width="50" height="50" fill="#C6B459"/>
<rect y="350" width="50" height="50" fill="black"/>
<rect x="50" width="50" height="50" fill="black"/>
<rect x="50" y="50" width="50" height="50" fill="#7591C5"/>
<rect x="50" y="100" width="50" height="50" fill="#C6B459"/>
<rect x="50" y="150" width="50" height="50" fill="black"/>
<rect x="50" y="200" width="50" height="50" fill="black"/>
<rect x="50" y="250" width="50" height="50" fill="#C6B459"/>
<rect x="50" y="300" width="50" height="50" fill="#C6B459"/>
<rect x="50" y="350" width="50" height="50" fill="#7591C5"/>
<rect x="100" width="50" height="50" fill="#7591C5"/>
<rect x="100" y="50" width="50" height="50" fill="#7591C5"/>
<rect x="100" y="100" width="50" height="50" fill="#C6B459"/>
<rect x="100" y="150" width="50" height="50" fill="#7591C5"/>
<rect x="100" y="200" width="50" height="50" fill="#A73773"/>
<rect x="100" y="250" width="50" height="50" fill="#A73773"/>
<rect x="100" y="300" width="50" height="50" fill="black"/>
<rect x="100" y="350" width="50" height="50" fill="#7591C5"/>
<rect x="150" width="50" height="50" fill="#7591C5"/>
<rect x="150" y="50" width="50" height="50" fill="#A73773"/>
<rect x="150" y="100" width="50" height="50" fill="black"/>
<rect x="150" y="150" width="50" height="50" fill="#7591C5"/>
<rect x="150" y="200" width="50" height="50" fill="#C6B459"/>
<rect x="150" y="250" width="50" height="50" fill="#C6B459"/>
<rect x="150" y="300" width="50" height="50" fill="#7591C5"/>
<rect x="150" y="350" width="50" height="50" fill="black"/>
<rect x="200" width="50" height="50" fill="black"/>
<rect x="200" y="50" width="50" height="50" fill="#C6B459"/>
<rect x="200" y="100" width="50" height="50" fill="#C6B459"/>
<rect x="200" y="150" width="50" height="50" fill="black"/>
<rect x="200" y="200" width="50" height="50" fill="black"/>
<rect x="200" y="250" width="50" height="50" fill="#A73773"/>
<rect x="200" y="300" width="50" height="50" fill="#C6B459"/>
<rect x="200" y="350" width="50" height="50" fill="#7591C5"/>
<rect x="250" width="50" height="50" fill="black"/>
<rect x="250" y="50" width="50" height="50" fill="#7591C5"/>
<rect x="250" y="100" width="50" height="50" fill="#7591C5"/>
<rect x="250" y="150" width="50" height="50" fill="#7591C5"/>
<rect x="250" y="200" width="50" height="50" fill="#7591C5"/>
<rect x="250" y="250" width="50" height="50" fill="#7591C5"/>
<rect x="250" y="300" width="50" height="50" fill="black"/>
<rect x="250" y="350" width="50" height="50" fill="#A73773"/>
<rect x="300" width="50" height="50" fill="black"/>
<rect x="300" y="50" width="50" height="50" fill="black"/>
<rect x="300" y="100" width="50" height="50" fill="black"/>
<rect x="300" y="150" width="50" height="50" fill="#A73773"/>
<rect x="300" y="200" width="50" height="50" fill="black"/>
<rect x="300" y="250" width="50" height="50" fill="#7591C5"/>
<rect x="300" y="300" width="50" height="50" fill="black"/>
<rect x="300" y="350" width="50" height="50" fill="#A73773"/>
<rect x="350" width="50" height="50" fill="black"/>
<rect x="350" y="50" width="50" height="50" fill="#7591C5"/>
<rect x="350" y="100" width="50" height="50" fill="#A73773"/>
<rect x="350" y="150" width="50" height="50" fill="#C6B459"/>
<rect x="350" y="200" width="50" height="50" fill="black"/>
<rect x="350" y="250" width="50" height="50" fill="#A73773"/>
<rect x="350" y="300" width="50" height="50" fill="#C6B459"/>
<rect x="350" y="350" width="50" height="50" fill="#A73773"/>
</svg>
